<?xml version="1.0" encoding="utf-8"?>
<!-- Generator: Adobe Illustrator 16.0.0, SVG Export Plug-In . SVG Version: 6.00 Build 0)  -->
<!DOCTYPE svg PUBLIC "-//W3C//DTD SVG 1.1//EN" "http://www.w3.org/Graphics/SVG/1.1/DTD/svg11.dtd">
<svg version="1.1" id="Layer_1" xmlns="http://www.w3.org/2000/svg" xmlns:xlink="http://www.w3.org/1999/xlink" x="0px" y="0px"
	 width="22px" height="16.706px" viewBox="0 0 22 16.706" enable-background="new 0 0 22 16.706" xml:space="preserve">
<polygon points="8.222,8.394 5.212,5.644 0.165,1.031 0,1.031 0,15.881 0.029,15.881 5.212,11.144 "/>
<polygon points="16.816,5.644 13.808,8.394 16.816,11.144 22,15.881 22,1.031 21.864,1.031 "/>
<polygon points="13.188,9.219 11.014,11.206 8.84,9.219 5.831,11.969 0.648,16.706 11.014,16.706 21.381,16.706 16.198,11.969 "/>
<polygon points="0.784,0 5.831,4.612 8.84,7.363 11.014,9.35 13.188,7.363 16.198,4.612 21.245,0 "/>
</svg>
