<?xml version="1.0" encoding="utf-8"?>
<!-- Generator: Adobe Illustrator 16.0.0, SVG Export Plug-In . SVG Version: 6.00 Build 0)  -->
<!DOCTYPE svg PUBLIC "-//W3C//DTD SVG 1.1//EN" "http://www.w3.org/Graphics/SVG/1.1/DTD/svg11.dtd">
<svg version="1.1" id="Layer_1" xmlns="http://www.w3.org/2000/svg" xmlns:xlink="http://www.w3.org/1999/xlink" x="0px" y="0px"
	 width="80px" height="60.749px" viewBox="0 0 80 60.749" enable-background="new 0 0 80 60.749" xml:space="preserve">
<polygon fill="#ED247D" points="29.897,30.522 18.953,20.522 0.6,3.748 0,3.748 0,57.748 0.106,57.748 18.953,40.521 "/>
<polygon fill="#ED247D" points="61.15,20.523 50.21,30.522 61.15,40.521 80,57.748 80,3.748 79.507,3.748 "/>
<polygon fill="#ED247D" points="47.958,33.522 40.051,40.749 32.146,33.522 21.204,43.522 2.356,60.749 40.051,60.749 
	77.749,60.749 58.902,43.522 "/>
<polygon fill="#ED247D" points="2.85,0 21.204,16.772 32.146,26.773 40.051,33.998 47.958,26.773 58.902,16.772 77.255,0 "/>
</svg>
