<?xml version="1.0" encoding="utf-8"?>
<!-- Generator: Adobe Illustrator 16.0.0, SVG Export Plug-In . SVG Version: 6.00 Build 0)  -->
<!DOCTYPE svg PUBLIC "-//W3C//DTD SVG 1.1//EN" "http://www.w3.org/Graphics/SVG/1.1/DTD/svg11.dtd">
<svg version="1.1" id="Layer_1" xmlns="http://www.w3.org/2000/svg" xmlns:xlink="http://www.w3.org/1999/xlink" x="0px" y="0px"
	 width="145.008px" height="150px" viewBox="0 0 145.008 150" enable-background="new 0 0 145.008 150" xml:space="preserve">
<g>
	<path fill="#ED247D" d="M87.003,2.077c-13.657,10.735-28.562,23.594-43.89,38.827C26.894,57.025,13.312,72.71,2.079,87.001
		c-2.798,3.56-2.763,8.308,0.057,11.128l11.566,11.566c2.735,2.735,7.311,2.866,10.844,0.271
		c13.757-10.11,29.326-22.916,45.336-38.856c16.527-16.458,29.73-32.476,40.083-46.564c2.596-3.534,2.466-8.11-0.27-10.844
		L98.129,2.136C95.31-0.684,90.562-0.721,87.003,2.077"/>
	<path fill="#ED247D" d="M63.743,84.129l10.348,10.347c3.241,3.242,8.942,2.975,13.45-0.351c0.937,1.082,2.477,2.157,1.097,5.709
		c-1.587,4.077-4.715,8.884-1.606,11.993c2.492,2.491,7.417,0.684,10.01-0.677c2.603-1.363,9.538-3.934,10.91-3.749
		c-0.276,3.686-1.256,7.472-2.975,11.684c-1.729,4.222-1.956,7.544,0.453,9.169c2.429,1.623,6.841-0.293,10.892-2.181
		c4.065-1.877,10.24-4.015,9.667-0.635c-0.579,3.384-2.874,9.01-3.91,12.729c-1.024,3.714-0.9,7.021,0.89,8.015
		c1.799,1.006,5.537-0.24,9.385-2.218c3.848-1.977,9.411-6.312,11.062,6.035c1.803-7.702,3.023-16.396-1.771-15.637
		c-4.791,0.739-11.979,3.27-11.979,3.27s4.659-7.462,3.912-12.936c-0.739-5.486-6.577-13.322-21.335-4.488
		c4.17-7.904,5.486-14.188,1.527-18.31c-3.966-4.139-12.844-2.724-18.43,1.618c3.168-7.53,1.04-12.234-2.493-15.542
		c-0.101-0.1-0.22-0.158-0.336-0.224c1.491-3.767,1.087-7.758-1.425-10.269L80.742,67.135c-2.832,3.02-5.771,6.071-8.867,9.153
		C69.138,79.017,66.428,81.61,63.743,84.129"/>
</g>
</svg>
