<?xml version="1.0" encoding="utf-8"?>
<!-- Generator: Adobe Illustrator 16.0.0, SVG Export Plug-In . SVG Version: 6.00 Build 0)  -->
<!DOCTYPE svg PUBLIC "-//W3C//DTD SVG 1.1//EN" "http://www.w3.org/Graphics/SVG/1.1/DTD/svg11.dtd">
<svg version="1.1" id="Layer_1" xmlns="http://www.w3.org/2000/svg" xmlns:xlink="http://www.w3.org/1999/xlink" x="0px" y="0px"
	 width="140.851px" height="160px" viewBox="0 0 140.851 160" enable-background="new 0 0 140.851 160" xml:space="preserve">
<g>
	<path fill="#ED247D" d="M107.016,46.089c0-3.708-0.265-7.323-0.75-10.819L72.611,49.619L35.14,34.604
		c-0.548,3.702-0.848,7.54-0.848,11.485c0,27.731,14.205,50.553,32.444,53.443l0.006,49.611l-11.036,4.625l-10.04,4.269
		c-1.027,0.437-0.71,1.968,0.405,1.963l24.589-0.134l24.589-0.17c1.115-0.008,1.413-1.542,0.381-1.966l-10.092-4.145l-10.96-4.437
		l-0.006-49.617C92.812,96.642,107.016,73.821,107.016,46.089"/>
	<path fill="#ED247D" d="M119.944,59.562c0-1.53-0.547-2.845-1.342-3.526V27.028l22.248-9.486L70.425,0L0,17.542l72.611,29.094
		l43.574-18.577v27.977c-0.797,0.681-1.342,1.996-1.342,3.526c0,1.423,0.47,2.667,1.175,3.384l-3.294,13.98h9.058l-2.842-14.182
		C119.547,62.008,119.944,60.864,119.944,59.562"/>
</g>
</svg>
