<?xml version="1.0" encoding="utf-8"?>
<!-- Generator: Adobe Illustrator 16.0.0, SVG Export Plug-In . SVG Version: 6.00 Build 0)  -->
<!DOCTYPE svg PUBLIC "-//W3C//DTD SVG 1.1//EN" "http://www.w3.org/Graphics/SVG/1.1/DTD/svg11.dtd">
<svg version="1.1" id="Layer_1" xmlns="http://www.w3.org/2000/svg" xmlns:xlink="http://www.w3.org/1999/xlink" x="0px" y="0px"
	 width="145.418px" height="122px" viewBox="0 0 145.418 122" enable-background="new 0 0 145.418 122" xml:space="preserve">
<path fill="#ED247D" d="M107.548,78.39c-1.131,0.103-2.691,0-3.847,0l-37.125-0.579c-20.738,0-38.298-17.448-38.298-38.053l0,0
	c0-1.688,0.125-3.347,0.345-4.978C12.236,38.847,0,53.636,0,71.134l0,0c0,4.351,0.764,8.532,2.154,12.426l-0.007-0.005
	c0,0,5.891,25.714,20.224,38.446c0,0-4.418-11.401,11.904-13.566c1.131,0.102,2.273,0.163,3.429,0.163h37.98
	c18.271,0,33.609-13.089,37-30.295C111.224,77.766,109.635,78.667,107.548,78.39z"/>
<path fill="#ED247D" d="M145.418,37.464C145.418,16.859,128.451,0,107.714,0h-37.98C48.996,0,32.029,16.859,32.029,37.464v0
	c0,20.605,16.967,37.464,37.705,37.464h37.98c1.156,0,2.299-0.061,3.429-0.163c16.323,2.165,11.904,13.566,11.904,13.566
	c14.334-12.732,20.225-38.446,20.225-38.446l-0.007,0.005C144.655,45.996,145.418,41.816,145.418,37.464L145.418,37.464z"/>
</svg>
