<?xml version="1.0" encoding="utf-8"?>
<!-- Generator: Adobe Illustrator 16.0.0, SVG Export Plug-In . SVG Version: 6.00 Build 0)  -->
<!DOCTYPE svg PUBLIC "-//W3C//DTD SVG 1.1//EN" "http://www.w3.org/Graphics/SVG/1.1/DTD/svg11.dtd">
<svg version="1.1" id="Layer_1" xmlns="http://www.w3.org/2000/svg" xmlns:xlink="http://www.w3.org/1999/xlink" x="0px" y="0px"
	 width="132.011px" height="127px" viewBox="0 0 132.011 127" enable-background="new 0 0 132.011 127" xml:space="preserve">
<path fill="#ED247D" d="M74.729,51.979c5.469-2.941,9.167-8.516,9.167-14.92c0-9.466-8.065-17.139-18.013-17.139
	s-18.013,7.673-18.013,17.139c0,6.404,3.698,11.979,9.167,14.92c-10.999,2.326-19.294,11.697-19.294,22.837v45.607h0.111
	c0,3.632,12.55,6.577,28.03,6.577s28.03-2.945,28.03-6.577h0.111V74.815C94.023,63.676,85.729,54.304,74.729,51.979z"/>
<path fill="#ED247D" d="M34.954,74.242c0-11.139,8.295-20.512,19.295-22.836c-5.469-2.942-9.167-8.518-9.167-14.921
	c0-0.377,0.034-0.747,0.059-1.118c-2.455-1.538-5.202-2.684-8.155-3.308c5.469-2.942,9.167-8.517,9.167-14.919
	C46.154,7.673,38.089,0,28.141,0c-9.949,0-18.013,7.673-18.013,17.14c0,6.403,3.698,11.977,9.167,14.919
	C8.295,34.384,0,43.757,0,54.896v45.607h0.111c0,3.633,12.549,6.577,28.03,6.577c2.351,0,4.632-0.068,6.814-0.196V74.242z"/>
<path fill="#ED247D" d="M97.056,74.242c0-11.139-8.295-20.512-19.294-22.836c5.469-2.942,9.167-8.518,9.167-14.921
	c0-0.377-0.034-0.747-0.06-1.118c2.455-1.538,5.202-2.684,8.155-3.308c-5.469-2.942-9.167-8.517-9.167-14.919
	C85.857,7.673,93.922,0,103.87,0c9.949,0,18.013,7.673,18.013,17.14c0,6.403-3.698,11.977-9.167,14.919
	c11,2.325,19.294,11.698,19.294,22.836v45.607H131.9c0,3.633-12.549,6.577-28.03,6.577c-2.351,0-4.632-0.068-6.814-0.196V74.242z"/>
</svg>
