<?xml version="1.0" encoding="utf-8"?>
<!-- Generator: Adobe Illustrator 16.0.0, SVG Export Plug-In . SVG Version: 6.00 Build 0)  -->
<!DOCTYPE svg PUBLIC "-//W3C//DTD SVG 1.1//EN" "http://www.w3.org/Graphics/SVG/1.1/DTD/svg11.dtd">
<svg version="1.1" id="Layer_1" xmlns="http://www.w3.org/2000/svg" xmlns:xlink="http://www.w3.org/1999/xlink" x="0px" y="0px"
	 width="138.235px" height="154px" viewBox="0 0 138.235 154" enable-background="new 0 0 138.235 154" xml:space="preserve">
<g>
	<path fill="#ED247D" d="M27.946,99.354c6.394,6.394,6.394,16.758,0,23.15c-6.393,6.395-16.758,6.395-23.151,0
		c-6.393-6.394-6.393-16.758-0.001-23.15C11.188,92.959,21.553,92.959,27.946,99.354"/>
	<path fill="#ED247D" d="M53.835,73.464c6.394,6.394,6.394,16.758,0.001,23.153c-6.393,6.392-16.757,6.392-23.151-0.002
		c-6.394-6.394-6.394-16.758,0-23.151C37.078,67.071,47.442,67.071,53.835,73.464"/>
	<path fill="#ED247D" d="M79.725,47.574c6.395,6.394,6.395,16.758,0,23.152c-6.392,6.392-16.756,6.392-23.149-0.002
		c-6.394-6.393-6.394-16.757-0.002-23.15C62.968,41.181,73.331,41.181,79.725,47.574"/>
	<path fill="#ED247D" d="M105.615,21.685c6.394,6.394,6.394,16.757,0,23.152c-6.393,6.392-16.757,6.392-23.151-0.002
		c-6.394-6.393-6.394-16.758-0.001-23.15C88.856,15.291,99.221,15.292,105.615,21.685"/>
	<path fill="#ED247D" d="M115.744,56.58c6.395,6.394,6.396,16.758,0,23.152c-6.391,6.392-16.756,6.391-23.148-0.002
		c-6.395-6.393-6.395-16.757-0.002-23.15C98.988,50.186,109.353,50.186,115.744,56.58"/>
	<path fill="#ED247D" d="M89.856,82.469c6.393,6.393,6.394,16.757,0,23.153c-6.393,6.392-16.759,6.392-23.152-0.001
		c-6.393-6.395-6.393-16.76,0-23.151C73.098,76.075,83.462,76.076,89.856,82.469"/>
	<path fill="#ED247D" d="M124.293,91.017c6.395,6.394,6.395,16.758,0,23.152c-6.393,6.392-16.757,6.392-23.15-0.002
		c-6.393-6.394-6.395-16.759-0.002-23.15C107.535,84.623,117.899,84.624,124.293,91.017"/>
	<path fill="#ED247D" d="M133.44,126.054c6.394,6.394,6.394,16.756,0,23.152c-6.393,6.392-16.757,6.392-23.15-0.002
		c-6.395-6.395-6.395-16.759-0.002-23.15C116.684,119.66,127.047,119.66,133.44,126.054"/>
	<path fill="#ED247D" d="M98.403,116.907c6.394,6.394,6.394,16.758,0,23.152c-6.393,6.393-16.757,6.393-23.15-0.002
		c-6.394-6.394-6.395-16.758-0.002-23.152C81.645,110.512,92.011,110.512,98.403,116.907"/>
	<path fill="#ED247D" d="M63.966,108.358c6.392,6.395,6.394,16.76,0,23.152c-6.393,6.393-16.757,6.393-23.151-0.002
		c-6.393-6.392-6.393-16.756,0-23.15C47.208,101.965,57.573,101.965,63.966,108.358"/>
	<path fill="#ED247D" d="M42.054,52.459c0,0-31.36-9.661,7.342-52.459C49.396,0,77.51,29.704,42.054,52.459"/>
	<path fill="#ED247D" d="M38.82,57.516c0,0-22.266-6.802-25.368-31.038c0,0-7.383-0.868-5.995,2.834
		C8.843,33.014,15.387,57.81,38.82,57.516"/>
</g>
</svg>
