<?xml version="1.0" encoding="utf-8"?>
<!-- Generator: Adobe Illustrator 16.0.0, SVG Export Plug-In . SVG Version: 6.00 Build 0)  -->
<!DOCTYPE svg PUBLIC "-//W3C//DTD SVG 1.1//EN" "http://www.w3.org/Graphics/SVG/1.1/DTD/svg11.dtd">
<svg version="1.1" id="Layer_1" xmlns="http://www.w3.org/2000/svg" xmlns:xlink="http://www.w3.org/1999/xlink" x="0px" y="0px"
	 width="74px" height="176.792px" viewBox="0 0 74 176.792" enable-background="new 0 0 74 176.792" xml:space="preserve">
<path fill="#ED247D" d="M32.281,79.121c0-5.82,3.892-11.295,9.217-12.966v-3.106c0-7.343-5.635-13.436-12.823-14.245V3.128
	c0.036-0.108,0.061-0.218,0.061-0.33C28.736,1.253,25.16,0,20.749,0c-4.411,0-7.987,1.253-7.987,2.798
	c0,0.111,0.024,0.221,0.06,0.33v45.647C5.654,49.467,0,55.507,0,62.798v97.773h0.061C0.038,160.694,0,160.815,0,160.938
	c0,3.473,9.29,6.288,20.749,6.288c4.268,0,8.233-0.391,11.532-1.061V79.121z"/>
<path fill="#ED247D" d="M74,80.279c0-6.803-5.22-12.448-11.879-13.197V24.766c0.034-0.1,0.056-0.202,0.056-0.305
	c0-1.431-3.312-2.593-7.399-2.593c-4.086,0-7.399,1.161-7.399,2.593c0,0.104,0.022,0.206,0.056,0.306v42.289
	c-6.642,0.64-11.879,6.237-11.879,12.991v90.581h0.057c-0.022,0.113-0.057,0.225-0.057,0.339c0,3.216,8.606,5.825,19.222,5.825
	c10.616,0,19.222-2.608,19.222-5.825c0-0.115-0.035-0.227-0.057-0.339H74V80.279z"/>
</svg>
