<?xml version="1.0" encoding="utf-8"?>
<!-- Generator: Adobe Illustrator 16.0.0, SVG Export Plug-In . SVG Version: 6.00 Build 0)  -->
<!DOCTYPE svg PUBLIC "-//W3C//DTD SVG 1.1//EN" "http://www.w3.org/Graphics/SVG/1.1/DTD/svg11.dtd">
<svg version="1.1" id="Layer_1" xmlns="http://www.w3.org/2000/svg" xmlns:xlink="http://www.w3.org/1999/xlink" x="0px" y="0px"
	 width="147.072px" height="103px" viewBox="0 0 147.072 103" enable-background="new 0 0 147.072 103" xml:space="preserve">
<g>
	<path fill="#ED247D" d="M125.611,9.036c8.346,3.92,14.64,21.437,14.64,42.458c0,21.024-6.294,38.542-14.64,42.461
		c11.896-0.51,21.461-19.318,21.461-42.461C147.072,28.354,137.507,9.547,125.611,9.036"/>
	<path fill="#ED247D" d="M103.897,51.495c0-8.574,1.052-16.56,2.856-23.285c-2.269,6.689-3.594,14.687-3.594,23.285
		c0,8.601,1.325,16.598,3.596,23.286C104.949,68.057,103.897,60.072,103.897,51.495"/>
	<path fill="#ED247D" d="M70.821,49.584C71.461,21.56,84.874,5.853,89.472,0.783c-4.817-0.474-9.889-0.76-15.201-0.782
		c-8.873-0.035-17.088,0.671-24.556,1.787c-5.312,5.71-17.637,20.934-18.423,47.286c-0.854,28.609,12.721,45.882,18.277,51.965
		c7.467,1.219,15.735,1.998,24.702,1.959c4.919-0.022,9.613-0.295,14.092-0.74C84.043,97.37,70.129,79.894,70.821,49.584"/>
	<path fill="#ED247D" d="M41.056,99.404c-5.628-7.276-15.776-23.831-15.184-49.819c0.565-24.726,11.072-39.86,16.696-46.562
		C34.333,4.63,27.202,6.675,21.394,8.644v0.027C9.528,9.25,0,28.03,0,51.127s9.528,41.877,21.394,42.456v0.027
		C26.704,95.575,33.327,97.681,41.056,99.404"/>
	<path fill="#ED247D" d="M125.117,8.643c0.247,0,0.49,0.021,0.735,0.036V8.643c-8.007-2.713-18.458-5.558-30.854-7.212
		c-5.109,5.415-17.955,20.723-18.757,47.645c-0.876,29.317,13.396,46.724,18.667,52.39c12.658-1.823,23.17-4.979,30.944-7.854
		v-0.037c-0.245,0.015-0.488,0.037-0.735,0.037c-12.126,0-21.957-19.022-21.957-42.485S112.991,8.643,125.117,8.643"/>
	<path fill="#ED247D" d="M129.162,74.595c0,4.616-1.812,8.358-4.045,8.358c-2.234,0-4.047-3.742-4.047-8.358
		c0-4.617,1.812-8.359,4.047-8.359C127.351,66.236,129.162,69.978,129.162,74.595"/>
</g>
</svg>
