<?xml version="1.0" encoding="utf-8"?>
<!-- Generator: Adobe Illustrator 16.0.0, SVG Export Plug-In . SVG Version: 6.00 Build 0)  -->
<!DOCTYPE svg PUBLIC "-//W3C//DTD SVG 1.1//EN" "http://www.w3.org/Graphics/SVG/1.1/DTD/svg11.dtd">
<svg version="1.1" id="Layer_1" xmlns="http://www.w3.org/2000/svg" xmlns:xlink="http://www.w3.org/1999/xlink" x="0px" y="0px"
	 width="122px" height="123.051px" viewBox="0 0 122 123.051" enable-background="new 0 0 122 123.051" xml:space="preserve">
<path fill="#ED247D" d="M69.062,50.363c5.054-2.85,8.471-8.251,8.471-14.457c0-9.171-7.453-16.606-16.647-16.606
	s-16.647,7.435-16.647,16.606c0,6.205,3.418,11.606,8.472,14.457C42.546,52.616,34.88,61.697,34.88,72.489v44.19h0.103
	c0,3.519,11.597,6.373,25.904,6.373s25.904-2.853,25.904-6.373h0.103v-44.19C86.894,61.697,79.228,52.616,69.062,50.363z"/>
<path fill="#ED247D" d="M32.304,71.933c0-10.793,7.666-19.874,17.831-22.126c-5.054-2.851-8.471-8.251-8.471-14.457
	c0-0.365,0.031-0.723,0.055-1.083c-2.269-1.49-4.808-2.599-7.536-3.204c5.054-2.851,8.472-8.251,8.472-14.456
	C42.654,7.435,35.201,0,26.007,0S9.359,7.435,9.359,16.606c0,6.205,3.418,11.605,8.472,14.456C7.666,33.315,0,42.396,0,53.189
	v44.189h0.103c0,3.52,11.598,6.373,25.904,6.373c2.172,0,4.281-0.067,6.297-0.19V71.933z"/>
<path fill="#ED247D" d="M89.697,71.933c0-10.793-7.667-19.874-17.831-22.126c5.054-2.851,8.471-8.251,8.471-14.457
	c0-0.365-0.032-0.723-0.055-1.083c2.269-1.49,4.808-2.599,7.536-3.204c-5.054-2.851-8.471-8.251-8.471-14.456
	C79.347,7.435,86.8,0,95.994,0s16.647,7.435,16.647,16.606c0,6.205-3.418,11.605-8.472,14.456C114.334,33.315,122,42.396,122,53.189
	v44.189h-0.103c0,3.52-11.598,6.373-25.904,6.373c-2.172,0-4.281-0.067-6.297-0.19V71.933z"/>
</svg>
