<?xml version="1.0" encoding="utf-8"?>
<!-- Generator: Adobe Illustrator 16.0.0, SVG Export Plug-In . SVG Version: 6.00 Build 0)  -->
<!DOCTYPE svg PUBLIC "-//W3C//DTD SVG 1.1//EN" "http://www.w3.org/Graphics/SVG/1.1/DTD/svg11.dtd">
<svg version="1.1" id="Layer_1" xmlns="http://www.w3.org/2000/svg" xmlns:xlink="http://www.w3.org/1999/xlink" x="0px" y="0px"
	 width="150px" height="150px" viewBox="0 0 150 150" enable-background="new 0 0 150 150" xml:space="preserve">
<g>
	<defs>
		
			<rect id="SVGID_1_" x="24.268" y="19.666" transform="matrix(-0.7071 0.7071 -0.7071 -0.7071 181.0656 75.0002)" width="101.464" height="110.667"/>
	</defs>
	<clipPath id="SVGID_2_">
		<use xlink:href="#SVGID_1_"  overflow="visible"/>
	</clipPath>
	<path clip-path="url(#SVGID_2_)" fill="#ED247D" d="M69.503,6.028C59.295,14.052,48.156,23.663,36.7,35.048
		C24.577,47.097,14.425,58.82,6.03,69.501c-2.091,2.66-2.065,6.209,0.042,8.317l8.645,8.646c2.044,2.044,5.464,2.142,8.105,0.201
		c10.282-7.556,21.918-17.126,33.885-29.041c12.353-12.3,22.22-24.272,29.958-34.802c1.94-2.641,1.843-6.061-0.201-8.105
		l-8.645-8.645C75.711,3.965,72.163,3.938,69.503,6.028"/>
	<path clip-path="url(#SVGID_2_)" fill="#ED247D" d="M52.118,67.355l7.734,7.734c2.422,2.423,6.683,2.223,10.053-0.263
		c0.7,0.809,1.851,1.612,0.819,4.267c-1.186,3.048-3.524,6.641-1.2,8.964c1.862,1.862,5.544,0.511,7.481-0.506
		c1.945-1.019,7.129-2.939,8.154-2.802c-0.206,2.755-0.938,5.584-2.223,8.732c-1.293,3.155-1.462,5.639,0.339,6.853
		c1.814,1.213,5.112-0.219,8.14-1.63c3.039-1.402,7.653-3,7.226-0.474c-0.433,2.528-2.148,6.733-2.923,9.513
		c-0.766,2.775-0.673,5.248,0.665,5.99c1.345,0.752,4.139-0.179,7.015-1.657c2.875-1.478,7.033-4.718,8.269,4.511
		c1.347-5.757,2.259-12.254-1.324-11.688c-3.581,0.553-8.952,2.444-8.952,2.444s3.481-5.577,2.924-9.668
		c-0.553-4.102-4.916-9.958-15.946-3.355c3.117-5.907,4.101-10.604,1.142-13.685c-2.964-3.093-9.6-2.035-13.774,1.21
		c2.368-5.628,0.777-9.145-1.864-11.617c-0.074-0.074-0.164-0.118-0.251-0.167c1.115-2.815,0.813-5.798-1.065-7.675l-7.732-7.732
		c-2.117,2.257-4.314,4.538-6.627,6.841C56.15,63.534,54.125,65.472,52.118,67.355"/>
</g>
</svg>
