<?xml version="1.0" encoding="utf-8"?>
<!-- Generator: Adobe Illustrator 16.0.0, SVG Export Plug-In . SVG Version: 6.00 Build 0)  -->
<!DOCTYPE svg PUBLIC "-//W3C//DTD SVG 1.1//EN" "http://www.w3.org/Graphics/SVG/1.1/DTD/svg11.dtd">
<svg version="1.1" id="Layer_1" xmlns="http://www.w3.org/2000/svg" xmlns:xlink="http://www.w3.org/1999/xlink" x="0px" y="0px"
	 width="24px" height="24px" viewBox="0 0 24 24" enable-background="new 0 0 24 24" xml:space="preserve">
<path d="M12,2.162c3.204,0,3.584,0.012,4.849,0.07c1.17,0.053,1.805,0.248,2.228,0.413c0.561,0.218,0.96,0.478,1.38,0.898
	c0.42,0.42,0.68,0.82,0.897,1.38c0.164,0.423,0.36,1.058,0.413,2.228c0.058,1.265,0.07,1.645,0.07,4.849
	c0,3.205-0.013,3.584-0.07,4.849c-0.053,1.17-0.249,1.805-0.413,2.228c-0.217,0.56-0.478,0.96-0.897,1.38
	c-0.42,0.42-0.819,0.68-1.38,0.898c-0.423,0.164-1.058,0.36-2.228,0.413c-1.265,0.058-1.645,0.07-4.849,0.07
	s-3.584-0.012-4.849-0.07c-1.169-0.053-1.805-0.249-2.228-0.413c-0.561-0.218-0.96-0.477-1.38-0.898
	c-0.42-0.42-0.68-0.82-0.897-1.38c-0.165-0.423-0.36-1.059-0.413-2.228c-0.058-1.265-0.07-1.645-0.07-4.849
	c0-3.204,0.013-3.583,0.07-4.849c0.053-1.17,0.249-1.806,0.413-2.228c0.218-0.56,0.478-0.96,0.897-1.38
	c0.42-0.42,0.819-0.68,1.38-0.898c0.423-0.165,1.059-0.36,2.228-0.413C8.416,2.174,8.796,2.162,12,2.162 M12,0
	C8.741,0,8.333,0.014,7.052,0.072C5.775,0.131,4.903,0.333,4.139,0.63C3.351,0.937,2.681,1.347,2.014,2.014
	C1.347,2.681,0.937,3.351,0.63,4.139c-0.297,0.764-0.5,1.636-0.558,2.913C0.014,8.333,0,8.741,0,12c0,3.26,0.014,3.668,0.072,4.948
	c0.058,1.277,0.261,2.149,0.558,2.913c0.307,0.789,0.717,1.458,1.384,2.125c0.667,0.667,1.336,1.078,2.125,1.384
	c0.764,0.297,1.636,0.5,2.913,0.558C8.333,23.986,8.741,24,12,24s3.667-0.014,4.947-0.072c1.277-0.059,2.15-0.261,2.913-0.558
	c0.789-0.306,1.458-0.717,2.125-1.384c0.667-0.667,1.078-1.336,1.384-2.125c0.297-0.764,0.5-1.636,0.558-2.913
	C23.986,15.668,24,15.259,24,12c0-3.259-0.014-3.667-0.072-4.947c-0.058-1.277-0.261-2.149-0.558-2.913
	c-0.307-0.789-0.717-1.458-1.384-2.125c-0.667-0.667-1.336-1.078-2.125-1.384c-0.763-0.297-1.636-0.5-2.913-0.558
	C15.667,0.014,15.259,0,12,0L12,0z"/>
<path d="M12,5.838c-3.403,0-6.162,2.759-6.162,6.162c0,3.403,2.759,6.162,6.162,6.162s6.162-2.759,6.162-6.162
	C18.162,8.597,15.403,5.838,12,5.838z M12,16c-2.209,0-4-1.791-4-4c0-2.209,1.791-4,4-4s4,1.791,4,4C16,14.209,14.209,16,12,16z"/>
<path d="M19.846,5.594c0,0.795-0.645,1.44-1.44,1.44s-1.44-0.646-1.44-1.44c0-0.795,0.645-1.44,1.44-1.44S19.846,4.799,19.846,5.594
	z"/>
</svg>
