<?xml version="1.0" encoding="utf-8"?>
<!-- Generator: Adobe Illustrator 16.0.0, SVG Export Plug-In . SVG Version: 6.00 Build 0)  -->
<!DOCTYPE svg PUBLIC "-//W3C//DTD SVG 1.1//EN" "http://www.w3.org/Graphics/SVG/1.1/DTD/svg11.dtd">
<svg version="1.1" id="Layer_1" xmlns="http://www.w3.org/2000/svg" xmlns:xlink="http://www.w3.org/1999/xlink" x="0px" y="0px"
	 width="351px" height="123.531px" viewBox="0 0 351 123.531" enable-background="new 0 0 351 123.531" xml:space="preserve">
<g>
	<defs>
		<rect id="SVGID_1_" y="0" width="351" height="123.531"/>
	</defs>
	<clipPath id="SVGID_2_">
		<use xlink:href="#SVGID_1_"  overflow="visible"/>
	</clipPath>
	<path clip-path="url(#SVGID_2_)" fill="#ED227D" d="M157.495,26.007c0,13.426,10.886,24.309,24.312,24.309
		c9.785,0,18.197-5.795,22.053-14.126c-3.103,1.433-6.545,2.258-10.185,2.258c-9.196,0-17.194-5.11-21.326-12.641h-14.846
		C157.502,25.873,157.495,25.939,157.495,26.007"/>
	<path clip-path="url(#SVGID_2_)" d="M183.581,51.084c10.078-0.227,19.273-6.201,23.569-15.383c0.169-0.327,0.267-0.699,0.267-1.094
		c0-1.302-1.045-2.358-2.343-2.372h-0.032c-0.062,0-0.123,0.002-0.185,0.007c-0.304,0.023-0.593,0.104-0.854,0.232
		c-2.912,1.34-5.988,2.019-9.146,2.019c-12.098,0-21.939-9.841-21.939-21.938c0-3.171,0.687-6.261,2.041-9.187
		c0.417-0.902,0.228-1.97-0.475-2.673C174.03,0.24,173.423,0,172.807,0c-0.337,0-0.676,0.071-0.995,0.218
		c-9.418,4.355-15.503,13.855-15.503,24.205c0,14.114,11.016,25.696,24.901,26.617v62.841c0,0.082,0.031,0.154,0.047,0.231
		l-16.733,4.766c-1.138,0.324-1.863,1.438-1.699,2.609c0.163,1.172,1.166,2.044,2.349,2.044h34.445c1.184,0,2.186-0.872,2.349-2.044
		c0.164-1.172-0.562-2.285-1.699-2.609l-16.734-4.766c0.016-0.077,0.047-0.149,0.047-0.231V51.084z M158.68,24.423
		c0-9.786,5.794-18.199,14.127-22.051c-1.434,3.098-2.26,6.54-2.26,10.183c0,13.424,10.886,24.31,24.312,24.31
		c3.642,0,7.083-0.823,10.185-2.258c-3.856,8.332-12.268,14.127-22.052,14.127C169.566,48.734,158.68,37.847,158.68,24.423
		 M165.174,121.159l17.222-4.905l17.224,4.905H165.174z"/>
	<path clip-path="url(#SVGID_2_)" d="M3.522,83.429c0.129,0,0.333-0.153,0.62-0.457c0.283-0.307,0.631-0.946,1.043-1.924
		c0.413-0.981,0.914-2.351,1.501-4.111s1.247-4.098,1.988-7.01c0.174-0.609,0.434-0.793,0.782-0.556
		c0.349,0.242,0.609,0.664,0.783,1.271c0.131,0.218,0.392,0.753,0.784,1.602c0.389,0.848,0.826,1.761,1.304,2.738
		c0.479,0.979,0.967,1.87,1.468,2.674c0.499,0.805,0.921,1.229,1.272,1.271c0.433,0.089,0.816-0.348,1.141-1.305
		c0.326-0.953,0.586-2.085,0.782-3.389c0.195-1.305,0.347-2.633,0.456-3.979c0.11-1.349,0.164-2.371,0.164-3.066
		c0.085-0.132,0.283-0.37,0.587-0.718c0.304-0.348,0.609-0.62,0.912-0.814c0.305-0.194,0.522-0.218,0.652-0.064
		c0.133,0.15,0.089,0.641-0.13,1.465c0,2.133-0.161,4.111-0.487,5.938c-0.329,1.824-0.72,3.412-1.176,4.761
		c-0.457,1.349-0.945,2.392-1.467,3.13c-0.523,0.74-1.001,1.108-1.434,1.108c-0.523,0.044-1.078-0.293-1.665-1.01
		c-0.585-0.718-1.141-1.535-1.663-2.445c-0.522-0.916-0.99-1.814-1.403-2.707c-0.414-0.893-0.729-1.488-0.943-1.795
		c-0.261,1.219-0.653,2.618-1.176,4.207c-0.523,1.587-1.088,3.075-1.694,4.468c-0.61,1.394-1.24,2.565-1.894,3.521
		c-0.651,0.958-1.26,1.391-1.827,1.306c-0.52-0.393-0.944-1.142-1.271-2.252c-0.323-1.107-0.586-2.412-0.782-3.91
		c-0.197-1.502-0.347-3.075-0.456-4.731c-0.108-1.65-0.184-3.25-0.228-4.792C0.022,70.309,0,68.939,0,67.741v-2.576
		c0-0.303,0.097-0.552,0.293-0.749c0.196-0.194,0.434-0.357,0.717-0.491c0.281-0.129,0.553-0.214,0.816-0.259
		c0.26-0.044,0.456-0.064,0.588-0.064c0.171-0.044,0.26,0.119,0.26,0.486c0,0.372-0.032,0.992-0.099,1.861
		c-0.063,0.868-0.129,2.022-0.196,3.456c-0.065,1.435-0.054,3.175,0.035,5.218c0,0.61,0.021,1.424,0.066,2.446
		c0.04,1.022,0.095,2.01,0.162,2.967c0.064,0.958,0.16,1.771,0.294,2.446C3.065,83.157,3.261,83.473,3.522,83.429"/>
	<path clip-path="url(#SVGID_2_)" d="M27.132,67.446c0.131-0.043,0.499-0.159,1.111-0.357c0.608-0.193,1.108-0.228,1.5-0.099
		c1.259-0.04,2.226,0.286,2.9,0.981c0.675,0.694,0.727,2.045,0.164,4.044c-0.826,2.217-1.925,4.062-3.294,5.542
		c-1.371,1.478-2.989,2.891-4.859,4.239c0.435,1.132,1.087,1.763,1.956,1.891c0.87,0.133,1.783-0.01,2.741-0.421
		c0.954-0.413,1.89-0.969,2.802-1.666c0.914-0.692,1.653-1.306,2.219-1.826c0.914-0.78,1.642-1.444,2.186-1.989
		c0.542-0.542,1.118-1.206,1.727-1.99c0.132-0.084,0.205-0.074,0.229,0.035c0.02,0.108,0.01,0.271-0.034,0.49
		c-0.043,0.215-0.107,0.521-0.195,0.91c-0.13,0.306-0.262,0.579-0.391,0.817c-0.131,0.237-0.313,0.5-0.553,0.782
		c-0.241,0.283-0.556,0.617-0.948,1.009c-0.389,0.392-0.868,0.916-1.435,1.567c-0.651,0.61-1.282,1.205-1.891,1.795
		c-0.609,0.585-1.25,1.096-1.924,1.529c-0.673,0.439-1.412,0.743-2.216,0.916c-0.805,0.173-1.729,0.173-2.774,0
		c-0.871-0.307-1.565-0.629-2.086-0.978c-0.522-0.348-0.924-0.709-1.208-1.076c-0.282-0.372-0.489-0.709-0.618-1.012
		c-0.131-0.304-0.218-0.564-0.26-0.784c-0.22-0.868-0.305-2.044-0.261-3.521c0.041-1.479,0.477-3.394,1.303-5.74
		c0.565-1.215,1.175-2.251,1.827-3.099C25.501,68.588,26.262,67.928,27.132,67.446 M24.264,78.994
		c0.562-0.307,1.227-0.728,1.987-1.274c0.76-0.541,1.477-1.175,2.154-1.89c0.673-0.719,1.26-1.513,1.76-2.382
		c0.498-0.868,0.77-1.781,0.816-2.742c0.13-0.65,0.107-1.105-0.066-1.365c-0.087-0.133-0.174-0.197-0.261-0.197
		c-0.741-0.348-1.48-0.238-2.217,0.326c-0.739,0.565-1.414,1.37-2.022,2.413c-0.609,1.045-1.12,2.206-1.532,3.49
		C24.467,76.653,24.264,77.863,24.264,78.994"/>
	<path clip-path="url(#SVGID_2_)" d="M59.744,51.6c-0.13,0.783-0.284,1.609-0.457,2.48c-0.174,0.869-0.36,1.694-0.554,2.477
		c-0.197,0.783-0.36,1.457-0.49,2.021c-0.13,0.567-0.217,0.914-0.262,1.044c-0.26,0.74-0.61,1.696-1.044,2.871
		c-0.434,1.173-0.943,2.4-1.531,3.683c-0.587,1.285-1.252,2.565-1.991,3.85c-0.738,1.28-1.498,2.381-2.282,3.294
		c0,0.651,0.077,1.751,0.229,3.293c0.153,1.544,0.336,3.206,0.555,4.987c0.215,1.785,0.424,3.536,0.619,5.253
		c0.198,1.716,0.316,3.056,0.358,4.008c-0.217,0.22-0.412,0.174-0.588-0.129c-0.174-0.303-0.434-0.823-0.779-1.563
		c-0.263-1.13-0.469-2.177-0.622-3.129c-0.152-0.958-0.293-1.926-0.423-2.902c-0.131-0.982-0.272-2.014-0.425-3.1
		c-0.153-1.088-0.38-2.327-0.685-3.717c-0.826,1.042-1.815,2.228-2.966,3.553c-1.153,1.328-2.349,2.5-3.589,3.522
		c-1.238,1.021-2.456,1.74-3.651,2.152c-1.196,0.412-2.23,0.229-3.098-0.556c-0.521-0.695-0.751-1.51-0.687-2.445
		c0.068-0.934,0.327-1.891,0.784-2.871c0.458-0.979,1.044-1.941,1.76-2.902c0.718-0.954,1.447-1.847,2.188-2.674
		c0.737-0.824,1.432-1.54,2.086-2.149c0.65-0.609,1.13-1.046,1.433-1.309c0.608-0.388,1.121-0.705,1.534-0.942
		c0.413-0.239,0.783-0.434,1.11-0.587c0.325-0.153,0.661-0.262,1.01-0.325c0.346-0.066,0.782-0.076,1.305-0.035
		c-0.087-0.999-0.14-2.193-0.164-3.587c-0.022-1.39-0.022-2.792,0-4.207c0.024-1.412,0.066-2.727,0.131-3.946
		c0.065-1.216,0.163-2.151,0.295-2.804c0.085-0.957,0.293-1.956,0.618-3c0.326-1.044,0.739-2.054,1.24-3.033
		c0.499-0.979,1.054-1.849,1.662-2.609c0.608-0.76,1.272-1.304,1.991-1.63c0.715-0.327,1.454-0.403,2.216-0.229
		c0.761,0.173,1.51,0.716,2.249,1.631c0.61,0.739,0.915,1.663,0.915,2.772V51.6z M41.675,75.081
		c-1.173,1.215-2.031,2.336-2.573,3.357c-0.544,1.021-0.991,1.969-1.34,2.838v0.619c0,0.283,0.034,0.553,0.099,0.814
		c0.064,0.262,0.196,0.491,0.392,0.686c0.194,0.197,0.509,0.252,0.945,0.163c0.434-0.174,0.792-0.348,1.074-0.521
		c0.285-0.175,0.546-0.361,0.786-0.556c0.239-0.193,0.497-0.401,0.781-0.62c0.283-0.219,0.643-0.501,1.077-0.849
		c0.608-0.65,1.357-1.39,2.25-2.218c0.89-0.824,1.672-1.695,2.348-2.608c0.674-0.913,1.119-1.846,1.339-2.804
		c0.215-0.957-0.068-1.894-0.85-2.806c-0.305,0-0.62,0.044-0.945,0.128c-0.326,0.089-0.728,0.297-1.208,0.622
		c-0.478,0.325-1.056,0.782-1.727,1.372C43.449,73.284,42.633,74.08,41.675,75.081 M51.133,69.014
		c0.784-0.868,1.436-1.795,1.958-2.772c0.522-0.977,1.108-2.139,1.76-3.49c0.564-1.171,1.076-2.672,1.531-4.499
		c0.459-1.827,0.774-3.62,0.949-5.382c0.172-1.761,0.172-3.293,0-4.598c-0.175-1.304-0.612-1.999-1.303-2.088
		c-0.613-0.085-1.177,0.142-1.698,0.686s-1.002,1.217-1.436,2.022c-0.432,0.806-0.803,1.664-1.107,2.576
		c-0.304,0.914-0.523,1.719-0.654,2.414c-0.174,0.87-0.292,1.652-0.357,2.347c-0.065,0.696-0.109,1.426-0.132,2.185
		c-0.022,0.762-0.055,1.588-0.097,2.479c-0.044,0.891-0.131,1.99-0.26,3.294c0,0.65,0.032,1.305,0.097,1.955
		c0.064,0.654,0.151,1.21,0.26,1.662c0.109,0.456,0.206,0.807,0.295,1.046C51.026,69.089,51.091,69.144,51.133,69.014"/>
	<path clip-path="url(#SVGID_2_)" d="M60.786,66.013c0,1.22-0.01,2.437-0.032,3.651c-0.021,1.22-0.044,2.395-0.064,3.522
		c-0.024,1.131-0.045,2.196-0.067,3.195c-0.021,1.001-0.053,1.894-0.097,2.673c0-0.17,0.097-0.595,0.295-1.27
		c0.194-0.675,0.466-1.444,0.814-2.313c0.347-0.871,0.728-1.795,1.14-2.771c0.415-0.982,0.859-1.851,1.339-2.61
		c0.477-0.76,0.967-1.358,1.467-1.795c0.499-0.432,0.967-0.565,1.401-0.392c0.959,0.437,1.632,1.066,2.022,1.895
		c0.392,0.824,0.675,1.771,0.85,2.837c0.171,1.062,0.349,2.247,0.521,3.553c0.174,1.306,0.565,2.674,1.173,4.107
		c0.26,0.655,0.642,1.135,1.143,1.438c0.499,0.304,0.978,0.521,1.434,0.651c0.456,0.129,0.826,0.207,1.109,0.228
		c0.284,0.024,0.38,0.099,0.292,0.229c-1.086,0.827-2.021,1.11-2.801,0.848c-0.785-0.259-1.447-0.834-1.991-1.727
		c-0.543-0.89-0.99-1.959-1.338-3.198c-0.348-1.237-0.663-2.433-0.944-3.587c-0.285-1.151-0.535-2.129-0.751-2.933
		c-0.218-0.804-0.457-1.206-0.719-1.206c-0.39,0.041-0.814,0.413-1.272,1.107c-0.456,0.694-0.923,1.562-1.402,2.608
		c-0.477,1.042-0.935,2.184-1.367,3.424c-0.436,1.24-0.838,2.404-1.21,3.488c-0.369,1.089-0.662,2.022-0.878,2.807
		c-0.22,0.782-0.349,1.26-0.392,1.434c-0.652,0-1.054,0.02-1.206,0.064c-0.153,0.044-0.403-0.17-0.751-0.65
		c0.217-3.825,0.293-7.446,0.229-10.859c-0.065-3.413-0.164-6.383-0.294-8.903c0-0.392,0.098-0.586,0.294-0.586
		c0.194,0,0.412,0.085,0.652,0.259c0.238,0.174,0.49,0.352,0.751,0.521C60.396,65.929,60.613,66.013,60.786,66.013"/>
	<path clip-path="url(#SVGID_2_)" d="M81.462,67.446c0.129-0.043,0.499-0.159,1.109-0.357c0.609-0.193,1.108-0.228,1.5-0.099
		c1.262-0.04,2.227,0.286,2.902,0.981c0.675,0.694,0.727,2.045,0.165,4.044c-0.829,2.217-1.928,4.062-3.297,5.542
		c-1.368,1.478-2.989,2.891-4.859,4.239c0.434,1.132,1.089,1.763,1.959,1.891c0.87,0.133,1.781-0.01,2.738-0.421
		c0.957-0.413,1.892-0.969,2.804-1.666c0.914-0.692,1.653-1.306,2.218-1.826c0.913-0.78,1.641-1.444,2.185-1.989
		c0.544-0.542,1.118-1.206,1.729-1.99c0.13-0.084,0.207-0.074,0.227,0.035c0.022,0.108,0.01,0.271-0.032,0.49
		c-0.043,0.215-0.108,0.521-0.195,0.91c-0.131,0.306-0.262,0.579-0.391,0.817c-0.132,0.237-0.316,0.5-0.554,0.782
		c-0.24,0.283-0.555,0.617-0.948,1.009c-0.391,0.392-0.868,0.916-1.435,1.567c-0.65,0.61-1.282,1.205-1.89,1.795
		c-0.61,0.585-1.25,1.096-1.925,1.529c-0.674,0.439-1.411,0.743-2.217,0.916c-0.805,0.173-1.728,0.173-2.771,0
		c-0.872-0.307-1.567-0.629-2.088-0.978c-0.523-0.348-0.923-0.709-1.205-1.076c-0.285-0.372-0.491-0.709-0.622-1.012
		c-0.131-0.304-0.218-0.564-0.259-0.784c-0.219-0.868-0.305-2.044-0.262-3.521c0.043-1.479,0.478-3.394,1.306-5.74
		c0.562-1.215,1.173-2.251,1.824-3.099C79.833,68.588,80.591,67.928,81.462,67.446 M78.592,78.994
		c0.564-0.307,1.23-0.728,1.987-1.274c0.764-0.541,1.48-1.175,2.154-1.89c0.673-0.719,1.261-1.513,1.76-2.382
		c0.501-0.868,0.773-1.781,0.818-2.742c0.129-0.65,0.107-1.105-0.067-1.365c-0.087-0.133-0.173-0.197-0.26-0.197
		c-0.741-0.348-1.478-0.238-2.218,0.326c-0.74,0.565-1.413,1.37-2.023,2.413c-0.609,1.045-1.119,2.206-1.531,3.49
		C78.798,76.653,78.592,77.863,78.592,78.994"/>
	<path clip-path="url(#SVGID_2_)" d="M99.724,65.358c1.087,0.178,1.99,0.417,2.707,0.72c0.719,0.307,1.282,0.644,1.698,1.011
		c0.412,0.372,0.737,0.75,0.977,1.142c0.238,0.393,0.467,0.764,0.685,1.11c-0.046,0.174-0.252,0.153-0.62-0.068
		c-0.369-0.214-0.729-0.432-1.074-0.649c-0.959-0.61-2.112-0.979-3.459-1.107c-1.35-0.134-2.598-0.055-3.752,0.225
		c-1.152,0.286-2.075,0.772-2.771,1.468c-0.695,0.698-0.869,1.546-0.523,2.545c0.351,1.001,0.967,1.87,1.861,2.608
		c0.889,0.739,1.88,1.403,2.967,1.989c1.087,0.586,2.175,1.12,3.261,1.598c1.087,0.48,1.977,0.958,2.674,1.438
		c0.868-0.479,1.61-0.882,2.218-1.209s1.151-0.63,1.631-0.913c0.477-0.282,0.966-0.541,1.467-0.78
		c0.5-0.242,1.076-0.511,1.728-0.817c0.085-0.041,0.163-0.064,0.228-0.064c0.067,0,0.067,0.055,0,0.163
		c-0.065,0.106-0.238,0.282-0.521,0.521c-0.284,0.238-0.729,0.575-1.338,1.012c-0.305,0.218-0.869,0.585-1.693,1.107
		c-0.83,0.521-1.72,1.086-2.676,1.695c0.522,0.48,0.935,0.978,1.239,1.499c0.26,0.48,0.447,0.991,0.555,1.537
		c0.109,0.541,0.01,1.096-0.295,1.661c-0.868,1.391-1.848,2.477-2.934,3.26c-1.087,0.784-2.087,1.325-3.001,1.632
		c-0.61,0.219-1.284,0.238-2.022,0.065c-0.739-0.175-1.327-0.522-1.76-1.043c-0.48-0.699-0.599-1.403-0.36-2.123
		c0.24-0.715,0.642-1.409,1.209-2.088c0.562-0.671,1.216-1.311,1.955-1.92c0.739-0.609,1.391-1.151,1.957-1.632
		c-0.39-0.433-1.152-0.967-2.284-1.598c-1.131-0.63-2.294-1.325-3.488-2.088c-1.197-0.76-2.272-1.574-3.227-2.446
		c-0.957-0.868-1.48-1.736-1.567-2.608c-0.172-0.958-0.054-1.88,0.359-2.772c0.413-0.89,1.02-1.672,1.824-2.348
		c0.806-0.674,1.739-1.175,2.805-1.498C97.431,65.265,98.549,65.188,99.724,65.358 M99.137,87.73c0.477,0.218,1.021,0.218,1.63,0
		c0.609-0.214,1.185-0.531,1.728-0.943c0.546-0.415,1.024-0.872,1.436-1.37c0.413-0.5,0.685-0.945,0.816-1.338
		c0.13-0.348,0.01-0.726-0.359-1.141c-0.37-0.412-0.752-0.749-1.141-1.012c-0.479,0.351-1.024,0.793-1.632,1.339
		c-0.608,0.545-1.141,1.097-1.596,1.662c-0.458,0.565-0.795,1.11-1.011,1.632C98.787,87.08,98.832,87.472,99.137,87.73"/>
	<path clip-path="url(#SVGID_2_)" d="M133.573,51.6c-0.129,0.783-0.282,1.609-0.455,2.48c-0.175,0.869-0.359,1.694-0.554,2.477
		c-0.195,0.783-0.36,1.457-0.49,2.021c-0.129,0.567-0.217,0.914-0.26,1.044c-0.262,0.74-0.61,1.696-1.044,2.871
		c-0.436,1.173-0.945,2.4-1.533,3.683c-0.585,1.285-1.25,2.565-1.989,3.85c-0.739,1.28-1.499,2.381-2.282,3.294
		c0,0.651,0.075,1.751,0.228,3.293c0.152,1.544,0.335,3.206,0.555,4.987c0.215,1.785,0.423,3.536,0.618,5.253
		c0.197,1.716,0.315,3.056,0.36,4.008c-0.218,0.22-0.414,0.174-0.588-0.129c-0.175-0.303-0.436-0.823-0.783-1.563
		c-0.261-1.13-0.467-2.177-0.619-3.129c-0.153-0.958-0.294-1.926-0.422-2.902c-0.133-0.982-0.272-2.014-0.427-3.1
		c-0.152-1.088-0.382-2.327-0.683-3.717c-0.83,1.042-1.818,2.228-2.969,3.553c-1.152,1.328-2.348,2.5-3.586,3.522
		c-1.238,1.021-2.459,1.74-3.653,2.152c-1.196,0.412-2.23,0.229-3.098-0.556c-0.523-0.695-0.749-1.51-0.685-2.445
		c0.065-0.934,0.325-1.891,0.782-2.871c0.458-0.979,1.044-1.941,1.762-2.902c0.716-0.954,1.445-1.847,2.186-2.674
		c0.739-0.824,1.433-1.54,2.086-2.149c0.652-0.609,1.13-1.046,1.434-1.309c0.607-0.388,1.119-0.705,1.532-0.942
		c0.414-0.239,0.784-0.434,1.109-0.587c0.327-0.153,0.664-0.262,1.012-0.325c0.349-0.066,0.784-0.076,1.305-0.035
		c-0.087-0.999-0.142-2.193-0.164-3.587c-0.022-1.39-0.022-2.792,0-4.207c0.022-1.412,0.066-2.727,0.129-3.946
		c0.067-1.216,0.165-2.151,0.295-2.804c0.087-0.957,0.295-1.956,0.62-3s0.741-2.054,1.24-3.033s1.054-1.849,1.662-2.609
		c0.608-0.76,1.272-1.304,1.989-1.63c0.717-0.327,1.456-0.403,2.218-0.229c0.761,0.173,1.51,0.716,2.251,1.631
		c0.606,0.739,0.911,1.663,0.911,2.772V51.6z M115.506,75.081c-1.173,1.215-2.033,2.336-2.574,3.357
		c-0.545,1.021-0.991,1.969-1.337,2.838v0.619c0,0.283,0.031,0.553,0.099,0.814c0.064,0.262,0.195,0.491,0.39,0.686
		c0.193,0.197,0.511,0.252,0.945,0.163c0.436-0.174,0.793-0.348,1.076-0.521c0.283-0.175,0.544-0.361,0.784-0.556
		c0.238-0.193,0.499-0.401,0.783-0.62c0.281-0.219,0.639-0.501,1.075-0.849c0.608-0.65,1.357-1.39,2.249-2.218
		c0.891-0.824,1.675-1.695,2.349-2.608s1.119-1.846,1.337-2.804c0.217-0.957-0.065-1.894-0.848-2.806
		c-0.305,0-0.618,0.044-0.945,0.128c-0.327,0.089-0.729,0.297-1.206,0.622c-0.48,0.325-1.056,0.782-1.729,1.372
		C117.28,73.284,116.464,74.08,115.506,75.081 M124.966,69.014c0.783-0.868,1.434-1.795,1.955-2.772
		c0.523-0.977,1.11-2.139,1.763-3.49c0.563-1.171,1.074-2.672,1.531-4.499c0.458-1.827,0.771-3.62,0.945-5.382
		c0.175-1.761,0.175-3.293,0-4.598c-0.174-1.304-0.608-1.999-1.303-2.088c-0.61-0.085-1.173,0.142-1.696,0.686
		c-0.521,0.544-1,1.217-1.434,2.022c-0.434,0.806-0.805,1.664-1.109,2.576c-0.304,0.914-0.523,1.719-0.652,2.414
		c-0.176,0.87-0.297,1.652-0.359,2.347c-0.065,0.696-0.108,1.426-0.132,2.185c-0.02,0.762-0.054,1.588-0.097,2.479
		c-0.042,0.891-0.131,1.99-0.26,3.294c0,0.65,0.032,1.305,0.097,1.955c0.064,0.654,0.151,1.21,0.26,1.662
		c0.109,0.456,0.206,0.807,0.297,1.046C124.857,69.089,124.922,69.144,124.966,69.014"/>
	<path clip-path="url(#SVGID_2_)" d="M144.401,66.732c-0.044,0.258-0.14,0.803-0.293,1.631c-0.153,0.825-0.317,1.792-0.49,2.901
		c-0.174,1.107-0.326,2.272-0.457,3.488c-0.131,1.22-0.206,2.371-0.228,3.458c-0.021,1.086,0.044,2.009,0.196,2.772
		c0.152,0.759,0.403,1.226,0.749,1.4c1,0.479,2.024,0.316,3.068-0.488c1.042-0.807,2.257-2.033,3.652-3.685
		c0.128,0,0.141,0.173,0.031,0.521c-0.107,0.347-0.281,0.728-0.521,1.141c-0.24,0.416-0.477,0.828-0.717,1.239
		c-0.24,0.413-0.424,0.685-0.555,0.814c-0.347,0.436-0.848,0.927-1.499,1.469c-0.654,0.545-1.348,0.977-2.088,1.304
		c-0.739,0.327-1.446,0.471-2.12,0.423c-0.675-0.041-1.228-0.432-1.662-1.172c-0.218-0.521-0.349-1.165-0.392-1.924
		c-0.044-0.761-0.044-1.533,0-2.317c0.043-0.783,0.107-1.498,0.196-2.152c0.087-0.65,0.153-1.131,0.196-1.434
		c-0.915,1.695-1.957,3.304-3.132,4.826c-1.172,1.522-2.327,2.718-3.456,3.587c-1.131,0.871-2.175,1.338-3.132,1.404
		c-0.957,0.063-1.695-0.492-2.217-1.663c-0.304-1.131-0.304-2.405,0-3.818c0.306-1.411,0.763-2.684,1.371-3.815
		c0.913-1.563,1.868-3.001,2.868-4.305c1.001-1.302,2.065-2.412,3.197-3.325c1.131-0.913,2.316-1.577,3.554-1.988
		C141.76,66.612,143.052,66.514,144.401,66.732 M132.139,83.296c0.434,0.089,1.129-0.238,2.088-0.977
		c0.955-0.74,1.957-1.771,2.999-3.097c1.044-1.328,1.991-2.872,2.837-4.633c0.848-1.761,1.404-3.62,1.664-5.576h-0.751
		c-0.325,0-0.705,0.13-1.141,0.392c-1.652,1.087-3.064,2.357-4.238,3.815c-1.176,1.458-2.087,2.871-2.739,4.24
		c-0.655,1.369-1.044,2.599-1.176,3.688C131.552,82.234,131.703,82.948,132.139,83.296"/>
	<path clip-path="url(#SVGID_2_)" d="M155.099,81.342c1,0.477,2.139-0.271,3.423-2.253c1.283-1.979,2.314-5.184,3.098-9.619
		c0-0.044,0.141-0.044,0.424,0c0.283,0.045,0.576,0.109,0.88,0.194c0.304,0.089,0.588,0.198,0.849,0.327
		c0.26,0.133,0.392,0.238,0.392,0.327c0,0.651-0.045,1.435-0.132,2.347c-0.088,0.917-0.185,1.915-0.293,3.001
		c-0.111,1.087-0.185,2.241-0.228,3.458c-0.042,1.215-0.042,2.436,0,3.651c1.174-0.998,2.424-1.762,3.75-2.282
		c1.327-0.522,2.597-0.849,3.817-0.978c0.434,0.218,0.661,0.357,0.685,0.422c0.022,0.064-0.077,0.187-0.295,0.357
		c-1.654,0.48-3.1,1.135-4.338,1.959c-1.24,0.828-2.423,1.736-3.554,2.738c0,1.393,0.02,2.893,0.065,4.504
		c0.042,1.606,0.066,3.215,0.066,4.822c0,1.611-0.012,3.198-0.032,4.766c-0.024,1.563-0.111,2.973-0.261,4.236
		c-0.155,1.261-0.371,2.337-0.652,3.23c-0.284,0.888-0.666,1.488-1.143,1.791c-0.349,0.218-0.749,0.361-1.206,0.426
		c-0.456,0.064-0.912,0.075-1.369,0.031c-0.458-0.045-0.893-0.141-1.306-0.294c-0.414-0.153-0.748-0.357-1.012-0.619
		c-0.824-0.824-1.412-1.881-1.759-3.165c-0.349-1.28-0.523-2.684-0.523-4.203c0-1.526,0.174-3.09,0.523-4.697
		c0.347-1.611,0.816-3.153,1.403-4.632c0.586-1.479,1.305-2.813,2.151-4.01c0.85-1.198,1.772-2.122,2.772-2.771
		c0.13-2.347,0.196-4.654,0.196-6.915c-0.435,1.131-1.067,2.347-1.893,3.655c-0.824,1.301-1.848,2.325-3.064,3.062
		c-1.349,0.613-2.488,0.545-3.423-0.194c-0.937-0.739-1.511-1.87-1.731-3.393c-0.216-1.78-0.389-3.26-0.519-4.435
		c-0.133-1.172-0.24-2.282-0.327-3.324c-0.089-1.046-0.164-2.133-0.228-3.264c-0.067-1.13-0.164-2.544-0.293-4.241
		c0.214-0.129,0.541-0.163,0.978-0.094c0.434,0.064,0.759,0.207,0.977,0.422c0.131,0,0.218,0.351,0.261,1.045
		c0.042,0.695,0.088,1.588,0.13,2.674c0.043,1.087,0.108,2.272,0.198,3.554c0.085,1.283,0.227,2.503,0.423,3.653
		c0.193,1.152,0.456,2.164,0.781,3.032C154.086,80.517,154.531,81.078,155.099,81.342 M161.75,86.818
		c-0.261,0.307-0.531,0.6-0.814,0.882c-0.285,0.283-0.556,0.596-0.816,0.943c-0.567,0.699-1.108,1.632-1.631,2.807
		c-0.523,1.175-0.969,2.456-1.337,3.851c-0.372,1.389-0.62,2.791-0.75,4.206c-0.13,1.409-0.1,2.673,0.098,3.78
		c0.195,1.109,0.597,1.979,1.207,2.609c0.606,0.63,1.456,0.882,2.543,0.753c0.434-0.089,0.781-0.59,1.043-1.503
		c0.26-0.913,0.445-2.033,0.554-3.358c0.109-1.328,0.174-2.783,0.196-4.37s0.01-3.11-0.032-4.563
		c-0.045-1.458-0.095-2.732-0.164-3.818C161.784,87.948,161.75,87.21,161.75,86.818"/>
	<path clip-path="url(#SVGID_2_)" d="M195.991,66.013c0,1.22-0.012,2.437-0.034,3.651c-0.022,1.22-0.044,2.395-0.065,3.522
		c-0.023,1.131-0.043,2.196-0.064,3.195c-0.023,1.001-0.056,1.894-0.099,2.673c0-0.17,0.099-0.595,0.295-1.27
		s0.465-1.444,0.814-2.313c0.346-0.871,0.729-1.795,1.142-2.771c0.413-0.982,0.859-1.851,1.337-2.61s0.967-1.358,1.467-1.795
		c0.501-0.432,0.968-0.565,1.402-0.392c0.957,0.437,1.631,1.066,2.021,1.895c0.393,0.824,0.676,1.771,0.85,2.837
		c0.172,1.062,0.348,2.247,0.523,3.553c0.172,1.306,0.563,2.674,1.172,4.107c0.259,0.655,0.64,1.135,1.142,1.438
		c0.499,0.304,0.979,0.521,1.433,0.651c0.458,0.129,0.828,0.207,1.11,0.228c0.283,0.024,0.381,0.099,0.293,0.229
		c-1.086,0.827-2.021,1.11-2.803,0.848c-0.782-0.259-1.446-0.834-1.989-1.727c-0.545-0.89-0.992-1.959-1.338-3.198
		c-0.35-1.237-0.664-2.433-0.944-3.587c-0.285-1.151-0.535-2.129-0.751-2.933c-0.22-0.804-0.457-1.206-0.719-1.206
		c-0.391,0.041-0.814,0.413-1.272,1.107c-0.456,0.694-0.923,1.562-1.399,2.608c-0.48,1.042-0.938,2.184-1.371,3.424
		c-0.435,1.24-0.837,2.404-1.208,3.488c-0.369,1.089-0.66,2.022-0.881,2.807c-0.218,0.782-0.347,1.26-0.392,1.434
		c-0.651,0-1.053,0.02-1.204,0.064c-0.154,0.044-0.401-0.17-0.751-0.65c0.217-3.825,0.293-7.446,0.227-10.859
		c-0.062-3.413-0.159-6.383-0.293-8.903c0-0.392,0.099-0.586,0.293-0.586c0.198,0,0.411,0.085,0.654,0.259
		c0.238,0.174,0.488,0.352,0.749,0.521C195.6,65.929,195.815,66.013,195.991,66.013"/>
	<path clip-path="url(#SVGID_2_)" d="M213.404,57.208c0.434-0.087,0.695,0.175,0.783,0.783c0.089,0.609,0,1.066-0.261,1.37
		c-0.479,0.391-0.782,0.728-0.913,1.011c-0.132,0.283-0.438,0.467-0.913,0.554c-0.262-0.044-0.49-0.055-0.687-0.033
		c-0.193,0.023-0.359-0.336-0.486-1.076c0.171-0.479,0.442-0.955,0.815-1.434C212.109,57.906,212.666,57.514,213.404,57.208
		 M213.6,65.687c0.217,2.088,0.371,4.38,0.458,6.884c0.085,2.5,0.238,5.119,0.456,7.857c0.174,1.391,0.346,2.477,0.521,3.26
		c0.176,0.784,0.303,1.522,0.392,2.218c-0.695,0.133-1.239,0.119-1.63-0.031c-0.393-0.153-0.763-0.337-1.109-0.555
		c-0.088-0.694-0.187-1.847-0.294-3.457c-0.109-1.608-0.217-3.358-0.327-5.25c-0.107-1.894-0.218-3.729-0.323-5.514
		c-0.11-1.781-0.208-3.195-0.295-4.237c0.175-0.086,0.315-0.218,0.421-0.392c0.11-0.174,0.231-0.327,0.362-0.457
		c0.13-0.129,0.303-0.237,0.521-0.326C212.971,65.601,213.253,65.601,213.6,65.687"/>
	<path clip-path="url(#SVGID_2_)" d="M238.582,78.796c0.087,0.089,0.074,0.239-0.033,0.457c-0.11,0.219-0.262,0.456-0.459,0.718
		c-0.193,0.26-0.39,0.513-0.582,0.75c-0.198,0.239-0.34,0.402-0.428,0.491c-1.043,1.172-1.979,2.184-2.803,3.03
		c-0.827,0.849-1.501,1.577-2.022,2.188c0,0.041-0.013,0.293-0.032,0.749c-0.023,0.453-0.034,0.705-0.034,0.75
		c-0.087,1.479-0.121,2.967-0.097,4.469c0.021,1.499-0.077,3.008-0.293,4.53c-0.263,1.74-0.533,3.14-0.814,4.21
		c-0.284,1.062-0.579,1.931-0.884,2.609c-0.306,0.671-0.618,1.236-0.943,1.692c-0.327,0.457-0.686,0.968-1.076,1.533
		c-0.35,0.477-0.739,0.889-1.174,1.239c-0.437,0.348-1.024,0.76-1.761,1.24c-1.002,0.606-2.044,1.063-3.132,1.369
		c-1.087,0.303-2.088,0.358-2.999,0.164c-0.915-0.198-1.685-0.686-2.318-1.469c-0.628-0.783-0.987-1.955-1.074-3.521
		c-0.088-1.74,0.217-3.457,0.912-5.154c0.697-1.696,1.523-3.239,2.48-4.628c0.954-1.394,1.891-2.565,2.805-3.526
		c0.911-0.953,1.543-1.607,1.891-1.955c0.565-0.609,1.076-1.131,1.532-1.563c0.457-0.436,0.923-0.837,1.402-1.209
		c0.479-0.368,0.989-0.77,1.534-1.205c0.541-0.437,1.184-0.954,1.921-1.564c0.176-1.045,0.284-2.142,0.329-3.294
		c0.042-1.15,0.042-2.34,0-3.556c-0.784,1.608-1.623,2.872-2.512,3.785c-0.894,0.912-1.697,1.597-2.414,2.053
		c-0.717,0.457-1.305,0.74-1.763,0.849c-0.452,0.109-0.639,0.163-0.553,0.163c-0.825,0.13-1.489,0.16-1.988,0.096
		c-0.502-0.064-0.893-0.194-1.176-0.389c-0.282-0.197-0.498-0.425-0.651-0.688c-0.151-0.259-0.271-0.521-0.357-0.78
		c-0.221-1.131-0.208-2.293,0.031-3.491c0.239-1.196,0.597-2.337,1.075-3.423c0.479-1.087,1.001-2.088,1.566-3.001
		c0.564-0.913,1.085-1.652,1.565-2.218c0.086-0.085,0.294-0.316,0.62-0.684c0.325-0.369,0.75-0.784,1.272-1.241
		c0.521-0.456,1.163-0.923,1.923-1.399c0.76-0.48,1.64-0.916,2.642-1.305c1.001-0.218,2.023-0.316,3.065-0.297
		c1.042,0.024,1.892,0.274,2.544,0.753c-0.349,0.13-0.88,0.294-1.597,0.488c-0.72,0.193-1.187,0.336-1.404,0.422v0.133
		c0,0.129,0.043,0.197,0.132,0.197c-0.741-0.177-1.895,0.13-3.457,0.909c-1.565,0.784-3.262,2.286-5.088,4.504
		c-0.826,1.171-1.459,2.228-1.892,3.16c-0.435,0.937-0.75,1.74-0.945,2.414c-0.196,0.676-0.295,1.25-0.295,1.728
		c0,0.481,0.024,0.849,0.067,1.111c0.041,0.173,0.194,0.323,0.455,0.456c0.263,0.13,0.588,0.153,0.979,0.064
		c1.131-0.262,2.186-0.838,3.161-1.728c0.979-0.892,1.87-1.903,2.675-3.034c0.806-1.13,1.491-2.237,2.057-3.325
		c0.563-1.086,0.978-1.958,1.239-2.608c0.434-1.002,0.659-1.925,0.684-2.772c0.021-0.848-0.013-1.271-0.097-1.271h0.26
		c0.043,0,0.053,0.011,0.032,0.03c-0.021,0.024-0.163,0.055-0.424,0.099c0.087-0.088,0.172-0.143,0.261-0.163
		c0.087-0.023,0.174-0.055,0.262-0.099c-0.046-0.041-0.033-0.099,0.033-0.163c0.064-0.064,0.14-0.096,0.226-0.096
		c0-0.089,0.107-0.177,0.327-0.263l0.39-0.13l0.198-0.132c0.174-0.086,0.282-0.15,0.327-0.194c0.043-0.044,0.097-0.064,0.162-0.064
		c0.063,0,0.186,0.03,0.357,0.099c0.173,0.064,0.477,0.16,0.914,0.292c-0.39,1.043-0.729,2.317-1.01,3.815
		c-0.284,1.499-0.534,3.011-0.751,4.533c-0.22,1.522-0.402,2.968-0.556,4.337c-0.153,1.368-0.292,2.446-0.424,3.228
		c0.348-0.347,0.86-0.759,1.532-1.238c0.675-0.478,1.34-0.954,1.991-1.435C236.885,79.906,237.712,79.362,238.582,78.796
		 M230.363,90.081c0.129-1.002,0.108-1.611-0.065-1.826c-0.086-0.132-0.197-0.173-0.325-0.132c-1.175,0.956-2.133,1.764-2.869,2.414
		c-0.739,0.651-1.24,1.087-1.501,1.306c-2.088,1.954-3.644,3.685-4.665,5.184c-1.021,1.502-1.706,2.878-2.055,4.142
		c-0.477,1.39-0.75,2.619-0.814,3.686c-0.062,1.066,0.206,2.099,0.814,3.097c1.087,0.827,2.273,0.991,3.556,0.49
		s2.468-1.271,3.555-2.316c1.26-1.434,2.282-3.446,3.065-6.032C229.842,97.503,230.276,94.168,230.363,90.081"/>
	<path clip-path="url(#SVGID_2_)" d="M241.059,38.947c0.044,0.129,0.086,0.684,0.131,1.662c0.042,0.98,0.075,2.23,0.098,3.75
		c0.021,1.524,0.033,3.251,0.033,5.188c0,1.932,0.012,3.922,0.032,5.965c0.021,2.044,0.031,4.067,0.031,6.067v5.51v4.238v2.315
		c0.479-2.129,1.165-3.89,2.055-5.279c0.894-1.394,1.707-2.132,2.448-2.221c0.869-0.175,1.533,0.014,1.989,0.556
		c0.455,0.544,0.824,1.284,1.106,2.217c0.283,0.938,0.566,1.979,0.85,3.131c0.282,1.153,0.662,2.251,1.141,3.293
		c0.478,1.043,1.132,1.969,1.958,2.773c0.825,0.804,1.956,1.294,3.39,1.468c-1.13,0.957-2.141,1.39-3.035,1.304
		c-0.889-0.088-1.682-0.477-2.377-1.175c-0.695-0.694-1.305-1.587-1.825-2.673c-0.524-1.088-0.956-2.154-1.308-3.195
		c-0.348-1.042-0.629-1.958-0.847-2.742c-0.218-0.78-0.367-1.236-0.456-1.366c-0.261-0.348-0.546-0.371-0.847-0.068
		c-0.306,0.307-0.62,0.783-0.948,1.435c-0.326,0.654-0.628,1.403-0.911,2.251c-0.283,0.849-0.535,1.652-0.75,2.415
		c-0.22,0.76-0.392,1.4-0.521,1.925c-0.133,0.521-0.195,0.76-0.195,0.716c-0.132,0.565-0.24,1.304-0.328,2.217
		c-0.087,0.916-0.14,1.815-0.164,2.708c-0.021,0.893-0.021,1.696,0,2.412c0.024,0.718,0.077,1.165,0.164,1.338
		c-0.305,0-0.74-0.099-1.305-0.293c-0.564-0.198-1.001-0.292-1.304-0.292v-5.12v-7.047c0-2.586-0.012-5.358-0.031-8.315
		c-0.023-2.955-0.066-5.944-0.132-8.967c-0.066-3.022-0.142-6.022-0.227-9c-0.09-2.978-0.22-5.795-0.394-8.446
		c0-0.088,0.261-0.251,0.783-0.491C239.885,38.87,240.449,38.816,241.059,38.947"/>
	<path clip-path="url(#SVGID_2_)" d="M263.496,66.47c1.868-0.129,3.704-0.27,5.51-0.423c1.805-0.153,3.686-0.316,5.643-0.49
		c0.434,0.044,0.717,0.272,0.848,0.685c0.13,0.416-0.044,0.664-0.522,0.75c-1.608,0.173-3.456,0.412-5.544,0.719
		c-2.086,0.303-4.065,0.694-5.934,1.172c0.085,1.348,0.13,2.73,0.13,4.145c0,1.41,0.032,2.804,0.097,4.174
		c0.066,1.368,0.196,2.696,0.393,3.977c0.195,1.284,0.511,2.471,0.946,3.554c0.607,0.742,1.216,1.175,1.825,1.308
		c0.608,0.129,1.184,0.096,1.729-0.099c0.542-0.196,1.044-0.501,1.499-0.913c0.457-0.411,0.855-0.817,1.207-1.206
		c0.305-0.307,0.555-0.307,0.749,0c0.196,0.304,0.012,0.76-0.554,1.369c-0.262,0.304-0.587,0.63-0.979,0.978
		c-0.391,0.348-0.858,0.641-1.402,0.879c-0.543,0.238-1.152,0.392-1.826,0.461c-0.676,0.064-1.402-0.014-2.187-0.232
		c-0.999-0.259-1.738-1.066-2.217-2.411c-0.479-1.35-0.837-2.927-1.074-4.728c-0.241-1.806-0.402-3.686-0.491-5.645
		c-0.086-1.956-0.196-3.716-0.324-5.283c-1.915,0.178-3.316,0.326-4.209,0.456c-0.889,0.134-1.531,0.222-1.922,0.263
		c-0.393,0.044-0.654,0.021-0.783-0.064c-0.133-0.089-0.37-0.283-0.717-0.59c0.041-0.214,0.053-0.422,0.03-0.62
		c-0.02-0.194-0.02-0.357,0-0.486c0.022-0.132,0.11-0.263,0.263-0.392c0.152-0.13,0.444-0.239,0.878-0.328
		c0.655-0.17,1.6-0.271,2.84-0.292c1.238-0.021,2.446-0.12,3.62-0.293c-0.045-1.39-0.09-2.479-0.132-3.26
		c-0.045-0.782-0.089-1.469-0.129-2.057c-0.043-0.586-0.077-1.161-0.1-1.727s-0.032-1.304-0.032-2.217
		c0-0.217,0.12-0.38,0.359-0.488c0.237-0.111,0.509-0.175,0.815-0.198c0.304-0.021,0.585,0.023,0.847,0.13
		c0.261,0.111,0.434,0.273,0.521,0.49c0.131,0.392,0.218,0.968,0.262,1.728c0.043,0.763,0.075,1.565,0.099,2.414
		c0.023,0.848,0.033,1.706,0.033,2.576C263.562,65.121,263.539,65.859,263.496,66.47"/>
	<path clip-path="url(#SVGID_2_)" fill="#ED227D" d="M286.388,83.429c0.131,0,0.337-0.153,0.621-0.457
		c0.281-0.307,0.627-0.946,1.043-1.924c0.412-0.981,0.913-2.351,1.501-4.111c0.585-1.761,1.248-4.098,1.988-7.01
		c0.174-0.609,0.433-0.793,0.781-0.556c0.349,0.242,0.608,0.664,0.785,1.271c0.13,0.218,0.391,0.753,0.782,1.602
		c0.39,0.848,0.824,1.761,1.303,2.738c0.478,0.979,0.968,1.87,1.466,2.674c0.503,0.805,0.926,1.229,1.274,1.271
		c0.434,0.089,0.816-0.348,1.139-1.305c0.33-0.953,0.589-2.085,0.784-3.389c0.196-1.305,0.348-2.633,0.457-3.979
		c0.11-1.349,0.163-2.371,0.163-3.066c0.087-0.132,0.282-0.37,0.587-0.718c0.303-0.348,0.608-0.62,0.913-0.814
		s0.521-0.218,0.652-0.064c0.13,0.15,0.087,0.641-0.131,1.465c0,2.133-0.164,4.111-0.487,5.938
		c-0.326,1.824-0.719,3.412-1.175,4.761c-0.455,1.349-0.945,2.392-1.468,3.13c-0.521,0.74-1.001,1.108-1.435,1.108
		c-0.521,0.044-1.076-0.293-1.666-1.01c-0.585-0.718-1.139-1.535-1.659-2.445c-0.522-0.916-0.991-1.814-1.404-2.707
		c-0.412-0.893-0.729-1.488-0.944-1.795c-0.262,1.219-0.652,2.618-1.175,4.207c-0.521,1.587-1.086,3.075-1.695,4.468
		c-0.61,1.394-1.238,2.565-1.893,3.521c-0.652,0.958-1.261,1.391-1.827,1.306c-0.521-0.393-0.943-1.142-1.271-2.252
		c-0.326-1.107-0.587-2.412-0.783-3.91c-0.194-1.502-0.348-3.075-0.457-4.731c-0.106-1.65-0.184-3.25-0.229-4.792
		c-0.042-1.543-0.064-2.912-0.064-4.11v-2.576c0-0.303,0.098-0.552,0.293-0.749c0.198-0.194,0.435-0.357,0.719-0.491
		c0.281-0.129,0.556-0.214,0.814-0.259c0.262-0.044,0.456-0.064,0.589-0.064c0.173-0.044,0.26,0.119,0.26,0.486
		c0,0.372-0.033,0.992-0.099,1.861c-0.065,0.868-0.129,2.022-0.194,3.456c-0.065,1.435-0.055,3.175,0.033,5.218
		c0,0.61,0.021,1.424,0.063,2.446s0.098,2.01,0.163,2.967c0.064,0.958,0.162,1.771,0.294,2.446
		C285.931,83.157,286.127,83.473,286.388,83.429"/>
	<path clip-path="url(#SVGID_2_)" fill="#ED227D" d="M309.345,57.209c0.437-0.087,0.697,0.175,0.782,0.782
		c0.088,0.61,0,1.067-0.262,1.37c-0.478,0.392-0.78,0.729-0.912,1.012c-0.131,0.282-0.434,0.467-0.91,0.554
		c-0.264-0.044-0.493-0.056-0.688-0.033c-0.195,0.023-0.359-0.336-0.49-1.077c0.174-0.478,0.446-0.955,0.818-1.433
		C308.051,57.905,308.604,57.514,309.345,57.209"/>
	<path clip-path="url(#SVGID_2_)" fill="#ED227D" d="M318.933,66.013c0,1.22-0.013,2.437-0.033,3.651
		c-0.022,1.22-0.043,2.395-0.062,3.522c-0.024,1.131-0.046,2.196-0.067,3.195c-0.023,1.001-0.056,1.894-0.099,2.673
		c0-0.17,0.099-0.595,0.293-1.27c0.196-0.675,0.467-1.444,0.815-2.313c0.348-0.871,0.73-1.795,1.143-2.771
		c0.413-0.982,0.857-1.851,1.335-2.61c0.479-0.76,0.969-1.358,1.47-1.795c0.499-0.432,0.967-0.565,1.4-0.392
		c0.956,0.437,1.632,1.066,2.024,1.895c0.39,0.824,0.672,1.771,0.848,2.837c0.174,1.062,0.346,2.247,0.52,3.553
		c0.175,1.306,0.565,2.674,1.177,4.107c0.26,0.655,0.639,1.135,1.139,1.438c0.501,0.304,0.98,0.521,1.437,0.651
		c0.457,0.129,0.824,0.207,1.108,0.228c0.282,0.024,0.38,0.099,0.293,0.229c-1.088,0.827-2.023,1.11-2.805,0.848
		c-0.781-0.259-1.444-0.834-1.987-1.727c-0.546-0.89-0.989-1.959-1.339-3.198c-0.348-1.237-0.662-2.433-0.945-3.587
		c-0.285-1.151-0.532-2.129-0.751-2.933c-0.217-0.804-0.455-1.206-0.718-1.206c-0.389,0.041-0.815,0.413-1.271,1.107
		c-0.456,0.694-0.924,1.562-1.402,2.608c-0.479,1.042-0.936,2.184-1.368,3.424c-0.436,1.24-0.84,2.404-1.207,3.488
		c-0.371,1.089-0.664,2.022-0.881,2.807c-0.218,0.782-0.351,1.26-0.394,1.434c-0.652,0-1.053,0.02-1.204,0.064
		c-0.152,0.044-0.402-0.17-0.75-0.65c0.216-3.825,0.292-7.446,0.228-10.859s-0.163-6.383-0.293-8.903
		c0-0.392,0.097-0.586,0.293-0.586c0.195,0,0.412,0.085,0.652,0.259c0.238,0.174,0.489,0.352,0.75,0.521
		C318.542,65.929,318.758,66.013,318.933,66.013"/>
	<path clip-path="url(#SVGID_2_)" fill="#ED227D" d="M339.609,67.446c0.129-0.043,0.499-0.159,1.106-0.357
		c0.609-0.193,1.11-0.228,1.5-0.099c1.261-0.04,2.229,0.286,2.904,0.981c0.673,0.694,0.727,2.045,0.162,4.044
		c-0.826,2.217-1.924,4.062-3.295,5.542c-1.368,1.478-2.987,2.891-4.858,4.239c0.437,1.132,1.086,1.763,1.957,1.891
		c0.869,0.133,1.783-0.01,2.74-0.421c0.954-0.413,1.89-0.969,2.803-1.666c0.915-0.692,1.653-1.306,2.218-1.826
		c0.915-0.78,1.642-1.444,2.186-1.989c0.544-0.542,1.119-1.206,1.73-1.99c0.127-0.084,0.203-0.074,0.226,0.035
		c0.023,0.108,0.012,0.271-0.031,0.49c-0.043,0.215-0.111,0.521-0.194,0.91c-0.132,0.306-0.262,0.579-0.394,0.817
		c-0.129,0.237-0.315,0.5-0.554,0.782c-0.239,0.283-0.556,0.617-0.944,1.009c-0.393,0.392-0.87,0.916-1.436,1.567
		c-0.653,0.61-1.285,1.205-1.892,1.795c-0.609,0.585-1.251,1.096-1.927,1.529c-0.674,0.439-1.411,0.743-2.215,0.916
		c-0.806,0.173-1.729,0.173-2.771,0c-0.874-0.307-1.567-0.629-2.088-0.978c-0.523-0.348-0.926-0.709-1.208-1.076
		c-0.283-0.372-0.49-0.709-0.619-1.012c-0.132-0.304-0.219-0.564-0.262-0.784c-0.218-0.868-0.307-2.044-0.263-3.521
		c0.045-1.479,0.478-3.394,1.309-5.74c0.562-1.215,1.17-2.251,1.826-3.099C337.978,68.588,338.737,67.928,339.609,67.446
		 M336.737,78.994c0.565-0.307,1.227-0.728,1.989-1.274c0.761-0.541,1.479-1.175,2.155-1.89c0.672-0.719,1.259-1.513,1.76-2.382
		c0.499-0.868,0.771-1.781,0.814-2.742c0.13-0.65,0.108-1.105-0.064-1.365c-0.089-0.133-0.176-0.197-0.261-0.197
		c-0.741-0.348-1.479-0.238-2.22,0.326c-0.738,0.565-1.411,1.37-2.021,2.413c-0.608,1.045-1.119,2.206-1.531,3.49
		C336.943,76.653,336.737,77.863,336.737,78.994"/>
	<path clip-path="url(#SVGID_2_)" fill="#ED227D" d="M305.537,68.895c0,1.09,1.156,1.771,1.835,2.041
		c0.681,0.272,2.313,1.226,2.517,1.566c-0.68,0.745-1.498,1.358-2.517,1.904c-1.021,0.545-1.631,1.223-1.496,2.104
		c0.138,0.886,1.226,1.432,2.244,1.905c1.021,0.479,2.447,1.361,1.769,1.975c-0.68,0.613-2.04,1.342-2.856,1.929
		c-0.813,0.588-1.36,1.338-1.224,1.947c0.137,0.613,0.992,1.158,1.992,1.567s2.699,0.678,0.863,3.739
		c1.632-1.29,3.334-2.925,2.381-3.808c-0.95-0.886-2.618-1.904-2.618-1.904s2.081-0.612,2.893-1.973
		c0.815-1.362,1.158-4.353-2.893-5.647c2.073-0.817,3.378-1.903,3.406-3.671c0.029-1.771-1.738-3.402-3.442-3.676
		c1.837-0.954,2.279-2.448,2.24-3.944c0-0.511-0.637-0.767-0.925-0.767c-0.572,0-0.959,0.453-1.021,0.767
		c-0.09,0.456,0.157,1.128-0.813,1.674C306.899,67.168,305.537,67.535,305.537,68.895"/>
</g>
</svg>
