<?xml version="1.0" encoding="utf-8"?>
<!-- Generator: Adobe Illustrator 16.0.0, SVG Export Plug-In . SVG Version: 6.00 Build 0)  -->
<!DOCTYPE svg PUBLIC "-//W3C//DTD SVG 1.1//EN" "http://www.w3.org/Graphics/SVG/1.1/DTD/svg11.dtd">
<svg version="1.1" id="Layer_1" xmlns="http://www.w3.org/2000/svg" xmlns:xlink="http://www.w3.org/1999/xlink" x="0px" y="0px"
	 width="20px" height="19px" viewBox="0 0 20 19" enable-background="new 0 0 20 19" xml:space="preserve">
<path fill-rule="evenodd" clip-rule="evenodd" fill="#ED1A7D" d="M1.5,0h17C19.329,0,20,0.672,20,1.5C20,2.329,19.329,3,18.5,3h-17
	C0.671,3,0,2.329,0,1.5C0,0.672,0.671,0,1.5,0z"/>
<path fill-rule="evenodd" clip-rule="evenodd" fill="#ED1A7D" d="M1.5,8h17C19.329,8,20,8.672,20,9.5c0,0.829-0.671,1.5-1.5,1.5h-17
	C0.671,11,0,10.329,0,9.5C0,8.672,0.671,8,1.5,8z"/>
<path fill-rule="evenodd" clip-rule="evenodd" fill="#ED1A7D" d="M1.5,16h17c0.829,0,1.5,0.672,1.5,1.5c0,0.829-0.671,1.5-1.5,1.5
	h-17C0.671,19,0,18.329,0,17.5C0,16.672,0.671,16,1.5,16z"/>
</svg>
