<?xml version="1.0" encoding="utf-8"?>
<!-- Generator: Adobe Illustrator 16.0.0, SVG Export Plug-In . SVG Version: 6.00 Build 0)  -->
<!DOCTYPE svg PUBLIC "-//W3C//DTD SVG 1.1//EN" "http://www.w3.org/Graphics/SVG/1.1/DTD/svg11.dtd">
<svg version="1.1" id="Layer_1" xmlns="http://www.w3.org/2000/svg" xmlns:xlink="http://www.w3.org/1999/xlink" x="0px" y="0px"
	 width="29.309px" height="29.305px" viewBox="0 0 29.309 29.305" enable-background="new 0 0 29.309 29.305" xml:space="preserve">
<g opacity="0.05">
	<defs>
		<rect id="SVGID_1_" opacity="0.05" width="29.308" height="29.305"/>
	</defs>
	<clipPath id="SVGID_2_">
		<use xlink:href="#SVGID_1_"  overflow="visible"/>
	</clipPath>
	<path clip-path="url(#SVGID_2_)" fill="#ED227D" d="M0.684,14.913c0,7.699,6.24,13.939,13.938,13.939
		c5.611,0,10.434-3.322,12.645-8.1c-1.777,0.822-3.75,1.296-5.839,1.296c-5.274,0-9.86-2.932-12.228-7.25H0.686
		C0.686,14.837,0.684,14.874,0.684,14.913"/>
	<path clip-path="url(#SVGID_2_)" d="M9.461,1.36C8.64,3.138,8.167,5.112,8.167,7.2c0,7.699,6.24,13.939,13.94,13.939
		c2.087,0,4.061-0.472,5.839-1.295c-2.211,4.778-7.032,8.101-12.644,8.101c-7.699,0-13.942-6.24-13.942-13.939
		C1.359,8.393,4.683,3.571,9.461,1.36 M27.945,19.844h0.005 M9.461,0C9.269,0,9.074,0.041,8.891,0.126C3.49,2.624,0,8.072,0,14.005
		c0,8.436,6.865,15.3,15.302,15.3c5.906,0,11.332-3.46,13.846-8.82c0.104-0.19,0.161-0.408,0.161-0.641
		c0-0.748-0.603-1.356-1.35-1.36c-0.006,0-0.01,0-0.014,0c-0.035,0-0.069,0.002-0.105,0.005c-0.174,0.014-0.339,0.06-0.489,0.133
		c-1.672,0.769-3.436,1.157-5.244,1.157c-6.937,0-12.58-5.643-12.58-12.579c0-1.818,0.393-3.591,1.169-5.269
		c0.24-0.518,0.131-1.13-0.272-1.533C10.163,0.138,9.814,0,9.461,0 M9.461,2.72h0.005H9.461z"/>
</g>
</svg>
