<?xml version="1.0" encoding="utf-8"?>
<!-- Generator: Adobe Illustrator 16.0.0, SVG Export Plug-In . SVG Version: 6.00 Build 0)  -->
<!DOCTYPE svg PUBLIC "-//W3C//DTD SVG 1.1//EN" "http://www.w3.org/Graphics/SVG/1.1/DTD/svg11.dtd">
<svg version="1.1" id="Layer_1" xmlns="http://www.w3.org/2000/svg" xmlns:xlink="http://www.w3.org/1999/xlink" x="0px" y="0px"
	 width="12px" height="21.138px" viewBox="0 0 12 21.138" enable-background="new 0 0 12 21.138" xml:space="preserve">
<g>
	<path d="M12,19.893c0,0.687-0.549,1.245-1.226,1.245H1.226C0.549,21.138,0,20.579,0,19.893V1.245C0,0.557,0.549,0,1.226,0h9.549
		C11.451,0,12,0.557,12,1.245V19.893z M4.347,2.23c0.132,0,0.24-0.107,0.24-0.24c0-0.133-0.108-0.24-0.24-0.24
		c-0.133,0-0.24,0.107-0.24,0.24C4.106,2.123,4.214,2.23,4.347,2.23 M7.2,1.99c0-0.133-0.107-0.24-0.24-0.24H5.093
		c-0.132,0-0.239,0.107-0.239,0.24c0,0.132,0.107,0.24,0.239,0.24H6.96C7.093,2.23,7.2,2.123,7.2,1.99 M6,20.71
		c0.678,0,1.227-0.549,1.227-1.227c0-0.677-0.549-1.227-1.227-1.227s-1.227,0.55-1.227,1.227C4.773,20.161,5.322,20.71,6,20.71
		 M11.04,3.563H1.013V17.67H11.04V3.563z"/>
</g>
</svg>
