<?xml version="1.0" encoding="utf-8"?>
<!-- Generator: Adobe Illustrator 16.0.0, SVG Export Plug-In . SVG Version: 6.00 Build 0)  -->
<!DOCTYPE svg PUBLIC "-//W3C//DTD SVG 1.1//EN" "http://www.w3.org/Graphics/SVG/1.1/DTD/svg11.dtd">
<svg version="1.1" id="Layer_1" xmlns="http://www.w3.org/2000/svg" xmlns:xlink="http://www.w3.org/1999/xlink" x="0px" y="0px"
	 width="59.854px" height="41.995px" viewBox="0 0 59.854 41.995" enable-background="new 0 0 59.854 41.995" xml:space="preserve">
<g>
	<path fill="none" stroke="#ED247D" stroke-width="1.8536" stroke-miterlimit="10" d="M32.438,33.654
		c0,4.077,3.336,7.414,7.414,7.414h11.66c4.077,0,7.414-3.337,7.414-7.414v-11.66c0-4.078-3.337-7.415-7.414-7.415h-3.555
		c0.479-1.146,3.034-13.653,3.034-13.653h-6.068c0,0-12.071,16.271-12.278,19.337c0,0.007,0.002,0.011,0.001,0.018
		c-0.131,0.551-0.208,1.122-0.208,1.712V33.654z"/>
	<path fill="none" stroke="#ED247D" stroke-width="1.8536" stroke-miterlimit="10" d="M0.927,33.654
		c0,4.077,3.336,7.414,7.415,7.414h11.66c4.078,0,7.415-3.337,7.415-7.414v-11.66c0-4.078-3.336-7.415-7.415-7.415h-3.555
		c0.479-1.146,3.034-13.653,3.034-13.653h-6.068c0,0-12.071,16.271-12.279,19.337c0,0.007,0.002,0.011,0.002,0.018
		c-0.132,0.551-0.209,1.122-0.209,1.712V33.654z"/>
</g>
</svg>
