<?xml version="1.0" encoding="utf-8"?>
<!-- Generator: Adobe Illustrator 16.0.0, SVG Export Plug-In . SVG Version: 6.00 Build 0)  -->
<!DOCTYPE svg PUBLIC "-//W3C//DTD SVG 1.1//EN" "http://www.w3.org/Graphics/SVG/1.1/DTD/svg11.dtd">
<svg version="1.1" id="Layer_1" xmlns="http://www.w3.org/2000/svg" xmlns:xlink="http://www.w3.org/1999/xlink" x="0px" y="0px"
	 width="51.302px" height="124px" viewBox="0 0 51.302 124" enable-background="new 0 0 51.302 124" xml:space="preserve">
<g>
	<defs>
		<rect id="SVGID_1_" width="51.302" height="124"/>
	</defs>
	<clipPath id="SVGID_2_">
		<use xlink:href="#SVGID_1_"  overflow="visible"/>
	</clipPath>
	<path clip-path="url(#SVGID_2_)" fill="#ED227D" d="M1.19,26.105c0,13.477,10.927,24.401,24.405,24.401
		c9.822,0,18.267-5.817,22.137-14.18c-3.115,1.438-6.57,2.267-10.224,2.267c-9.231,0-17.26-5.129-21.407-12.689H1.198
		C1.198,25.971,1.19,26.037,1.19,26.105"/>
	<path clip-path="url(#SVGID_2_)" d="M27.376,51.278c10.116-0.228,19.347-6.225,23.658-15.442c0.17-0.328,0.268-0.701,0.268-1.098
		c0-1.307-1.049-2.368-2.352-2.381h-0.032c-0.062,0-0.123,0.002-0.186,0.007c-0.305,0.023-0.595,0.104-0.856,0.233
		c-2.923,1.346-6.011,2.027-9.18,2.027c-12.145,0-22.023-9.878-22.023-22.021c0-3.183,0.69-6.285,2.049-9.222
		c0.419-0.905,0.229-1.978-0.477-2.683C17.789,0.241,17.179,0,16.561,0c-0.338,0-0.679,0.071-0.999,0.219
		C6.108,4.59,0,14.126,0,24.516c0,14.167,11.058,25.793,24.996,26.718v63.08c0,0.082,0.031,0.154,0.047,0.232l-16.796,4.783
		c-1.143,0.325-1.87,1.443-1.706,2.619C6.705,123.125,7.711,124,8.899,124h34.576c1.188,0,2.194-0.875,2.357-2.052
		c0.165-1.176-0.563-2.294-1.705-2.619l-16.798-4.783c0.016-0.078,0.047-0.15,0.047-0.232V51.278z M2.38,24.516
		c0-9.823,5.816-18.268,14.181-22.135c-1.44,3.11-2.269,6.565-2.269,10.222c0,13.476,10.927,24.402,24.404,24.402
		c3.655,0,7.109-0.826,10.223-2.266c-3.871,8.364-12.314,14.181-22.136,14.181C13.308,48.919,2.38,37.991,2.38,24.516
		 M8.899,121.619l17.287-4.924l17.289,4.924H8.899z"/>
</g>
</svg>
